<mxfile host="app.diagrams.net" modified="2024-05-14T01:52:55.358Z" agent="Mozilla/5.0 (Windows NT 10.0; Win64; x64) AppleWebKit/537.36 (KHTML, like Gecko) Chrome/124.0.0.0 Safari/537.36" etag="2SK3G0lBYK6orq3e6kfW" version="24.4.0" type="device">
  <diagram name="EXERCISE-1" id="7WXvErT6jwQCl5LBhXy7">
    <mxGraphModel dx="2023" dy="637" grid="1" gridSize="10" guides="1" tooltips="1" connect="1" arrows="1" fold="1" page="1" pageScale="1" pageWidth="850" pageHeight="1100" math="0" shadow="0">
      <root>
        <mxCell id="0" />
        <mxCell id="1" parent="0" />
        <mxCell id="-hOMn0kYKFU-R9jvK8EN-38" value="EXERCISE 5 P2" style="text;html=1;align=center;verticalAlign=middle;resizable=0;points=[];autosize=1;strokeColor=none;fillColor=none;" parent="1" vertex="1">
          <mxGeometry x="315" width="110" height="30" as="geometry" />
        </mxCell>
        <mxCell id="jAzLcmatW34AS9ptDqRP-800" value="" style="edgeStyle=orthogonalEdgeStyle;rounded=0;orthogonalLoop=1;jettySize=auto;html=1;" edge="1" parent="1" source="jAzLcmatW34AS9ptDqRP-801" target="jAzLcmatW34AS9ptDqRP-803">
          <mxGeometry relative="1" as="geometry" />
        </mxCell>
        <mxCell id="jAzLcmatW34AS9ptDqRP-801" value="INICIO" style="ellipse;whiteSpace=wrap;html=1;" vertex="1" parent="1">
          <mxGeometry x="330" y="30" width="80" height="80" as="geometry" />
        </mxCell>
        <mxCell id="jAzLcmatW34AS9ptDqRP-802" value="" style="edgeStyle=orthogonalEdgeStyle;rounded=0;orthogonalLoop=1;jettySize=auto;html=1;" edge="1" parent="1" source="jAzLcmatW34AS9ptDqRP-803" target="jAzLcmatW34AS9ptDqRP-805">
          <mxGeometry relative="1" as="geometry" />
        </mxCell>
        <mxCell id="jAzLcmatW34AS9ptDqRP-803" value="INPUT&lt;div&gt;n, k&lt;/div&gt;" style="shape=parallelogram;perimeter=parallelogramPerimeter;whiteSpace=wrap;html=1;fixedSize=1;" vertex="1" parent="1">
          <mxGeometry x="310" y="150" width="120" height="60" as="geometry" />
        </mxCell>
        <mxCell id="jAzLcmatW34AS9ptDqRP-804" value="" style="edgeStyle=orthogonalEdgeStyle;rounded=0;orthogonalLoop=1;jettySize=auto;html=1;" edge="1" parent="1" source="jAzLcmatW34AS9ptDqRP-805" target="jAzLcmatW34AS9ptDqRP-808">
          <mxGeometry relative="1" as="geometry" />
        </mxCell>
        <mxCell id="jAzLcmatW34AS9ptDqRP-805" value="&lt;div&gt;&lt;span style=&quot;background-color: initial;&quot;&gt;espacio1&lt;/span&gt;&lt;br&gt;&lt;/div&gt;&lt;div&gt;_i&lt;/div&gt;&lt;div&gt;&lt;br&gt;&lt;/div&gt;&lt;div&gt;i=0&lt;/div&gt;&lt;div&gt;r=0&lt;/div&gt;" style="whiteSpace=wrap;html=1;" vertex="1" parent="1">
          <mxGeometry x="310" y="230" width="120" height="90" as="geometry" />
        </mxCell>
        <mxCell id="jAzLcmatW34AS9ptDqRP-806" value="" style="edgeStyle=orthogonalEdgeStyle;rounded=0;orthogonalLoop=1;jettySize=auto;html=1;" edge="1" parent="1" source="jAzLcmatW34AS9ptDqRP-808" target="jAzLcmatW34AS9ptDqRP-811">
          <mxGeometry relative="1" as="geometry" />
        </mxCell>
        <mxCell id="jAzLcmatW34AS9ptDqRP-807" value="" style="edgeStyle=orthogonalEdgeStyle;rounded=0;orthogonalLoop=1;jettySize=auto;html=1;" edge="1" parent="1" source="jAzLcmatW34AS9ptDqRP-808" target="jAzLcmatW34AS9ptDqRP-841">
          <mxGeometry relative="1" as="geometry" />
        </mxCell>
        <mxCell id="jAzLcmatW34AS9ptDqRP-808" value="n==1" style="rhombus;whiteSpace=wrap;html=1;fillColor=#fff2cc;strokeColor=#d6b656;" vertex="1" parent="1">
          <mxGeometry x="330" y="360" width="80" height="80" as="geometry" />
        </mxCell>
        <mxCell id="jAzLcmatW34AS9ptDqRP-809" value="" style="edgeStyle=orthogonalEdgeStyle;rounded=0;orthogonalLoop=1;jettySize=auto;html=1;" edge="1" parent="1" source="jAzLcmatW34AS9ptDqRP-811" target="jAzLcmatW34AS9ptDqRP-814">
          <mxGeometry relative="1" as="geometry" />
        </mxCell>
        <mxCell id="jAzLcmatW34AS9ptDqRP-810" value="" style="edgeStyle=orthogonalEdgeStyle;rounded=0;orthogonalLoop=1;jettySize=auto;html=1;" edge="1" parent="1" source="jAzLcmatW34AS9ptDqRP-811" target="jAzLcmatW34AS9ptDqRP-842">
          <mxGeometry relative="1" as="geometry" />
        </mxCell>
        <mxCell id="jAzLcmatW34AS9ptDqRP-811" value="n==2" style="rhombus;whiteSpace=wrap;html=1;fillColor=#fff2cc;strokeColor=#d6b656;" vertex="1" parent="1">
          <mxGeometry x="330" y="470" width="80" height="80" as="geometry" />
        </mxCell>
        <mxCell id="jAzLcmatW34AS9ptDqRP-812" value="" style="edgeStyle=orthogonalEdgeStyle;rounded=0;orthogonalLoop=1;jettySize=auto;html=1;" edge="1" parent="1" source="jAzLcmatW34AS9ptDqRP-814" target="jAzLcmatW34AS9ptDqRP-817">
          <mxGeometry relative="1" as="geometry" />
        </mxCell>
        <mxCell id="jAzLcmatW34AS9ptDqRP-813" value="" style="edgeStyle=orthogonalEdgeStyle;rounded=0;orthogonalLoop=1;jettySize=auto;html=1;" edge="1" parent="1" source="jAzLcmatW34AS9ptDqRP-814" target="jAzLcmatW34AS9ptDqRP-843">
          <mxGeometry relative="1" as="geometry" />
        </mxCell>
        <mxCell id="jAzLcmatW34AS9ptDqRP-814" value="n==3" style="rhombus;whiteSpace=wrap;html=1;fillColor=#fff2cc;strokeColor=#d6b656;" vertex="1" parent="1">
          <mxGeometry x="330" y="590" width="80" height="80" as="geometry" />
        </mxCell>
        <mxCell id="jAzLcmatW34AS9ptDqRP-815" value="" style="edgeStyle=orthogonalEdgeStyle;rounded=0;orthogonalLoop=1;jettySize=auto;html=1;" edge="1" parent="1" source="jAzLcmatW34AS9ptDqRP-817" target="jAzLcmatW34AS9ptDqRP-820">
          <mxGeometry relative="1" as="geometry" />
        </mxCell>
        <mxCell id="jAzLcmatW34AS9ptDqRP-816" value="" style="edgeStyle=orthogonalEdgeStyle;rounded=0;orthogonalLoop=1;jettySize=auto;html=1;" edge="1" parent="1" source="jAzLcmatW34AS9ptDqRP-817" target="jAzLcmatW34AS9ptDqRP-844">
          <mxGeometry relative="1" as="geometry" />
        </mxCell>
        <mxCell id="jAzLcmatW34AS9ptDqRP-817" value="n==4" style="rhombus;whiteSpace=wrap;html=1;fillColor=#fff2cc;strokeColor=#d6b656;" vertex="1" parent="1">
          <mxGeometry x="330" y="710" width="80" height="80" as="geometry" />
        </mxCell>
        <mxCell id="jAzLcmatW34AS9ptDqRP-818" value="" style="edgeStyle=orthogonalEdgeStyle;rounded=0;orthogonalLoop=1;jettySize=auto;html=1;" edge="1" parent="1" source="jAzLcmatW34AS9ptDqRP-820" target="jAzLcmatW34AS9ptDqRP-823">
          <mxGeometry relative="1" as="geometry" />
        </mxCell>
        <mxCell id="jAzLcmatW34AS9ptDqRP-819" value="" style="edgeStyle=orthogonalEdgeStyle;rounded=0;orthogonalLoop=1;jettySize=auto;html=1;" edge="1" parent="1" source="jAzLcmatW34AS9ptDqRP-820" target="jAzLcmatW34AS9ptDqRP-845">
          <mxGeometry relative="1" as="geometry" />
        </mxCell>
        <mxCell id="jAzLcmatW34AS9ptDqRP-820" value="n==5" style="rhombus;whiteSpace=wrap;html=1;fillColor=#fff2cc;strokeColor=#d6b656;" vertex="1" parent="1">
          <mxGeometry x="330" y="830" width="80" height="80" as="geometry" />
        </mxCell>
        <mxCell id="jAzLcmatW34AS9ptDqRP-821" value="" style="edgeStyle=orthogonalEdgeStyle;rounded=0;orthogonalLoop=1;jettySize=auto;html=1;" edge="1" parent="1" source="jAzLcmatW34AS9ptDqRP-823" target="jAzLcmatW34AS9ptDqRP-825">
          <mxGeometry relative="1" as="geometry" />
        </mxCell>
        <mxCell id="jAzLcmatW34AS9ptDqRP-822" value="" style="edgeStyle=orthogonalEdgeStyle;rounded=0;orthogonalLoop=1;jettySize=auto;html=1;" edge="1" parent="1" source="jAzLcmatW34AS9ptDqRP-823" target="jAzLcmatW34AS9ptDqRP-846">
          <mxGeometry relative="1" as="geometry" />
        </mxCell>
        <mxCell id="jAzLcmatW34AS9ptDqRP-823" value="n==6" style="rhombus;whiteSpace=wrap;html=1;fillColor=#fff2cc;strokeColor=#d6b656;" vertex="1" parent="1">
          <mxGeometry x="330" y="950" width="80" height="80" as="geometry" />
        </mxCell>
        <mxCell id="jAzLcmatW34AS9ptDqRP-824" value="" style="edgeStyle=orthogonalEdgeStyle;rounded=0;orthogonalLoop=1;jettySize=auto;html=1;" edge="1" parent="1" source="jAzLcmatW34AS9ptDqRP-825" target="jAzLcmatW34AS9ptDqRP-847">
          <mxGeometry relative="1" as="geometry" />
        </mxCell>
        <mxCell id="jAzLcmatW34AS9ptDqRP-825" value="n==7" style="rhombus;whiteSpace=wrap;html=1;fillColor=#fff2cc;strokeColor=#d6b656;" vertex="1" parent="1">
          <mxGeometry x="331" y="1079" width="80" height="80" as="geometry" />
        </mxCell>
        <mxCell id="jAzLcmatW34AS9ptDqRP-826" value="SI" style="text;html=1;align=center;verticalAlign=middle;resizable=0;points=[];autosize=1;strokeColor=none;fillColor=none;" vertex="1" parent="1">
          <mxGeometry x="405" y="358" width="30" height="30" as="geometry" />
        </mxCell>
        <mxCell id="jAzLcmatW34AS9ptDqRP-827" value="SI" style="text;html=1;align=center;verticalAlign=middle;resizable=0;points=[];autosize=1;strokeColor=none;fillColor=none;" vertex="1" parent="1">
          <mxGeometry x="400" y="470" width="30" height="30" as="geometry" />
        </mxCell>
        <mxCell id="jAzLcmatW34AS9ptDqRP-828" value="SI" style="text;html=1;align=center;verticalAlign=middle;resizable=0;points=[];autosize=1;strokeColor=none;fillColor=none;" vertex="1" parent="1">
          <mxGeometry x="400" y="580" width="30" height="30" as="geometry" />
        </mxCell>
        <mxCell id="jAzLcmatW34AS9ptDqRP-829" value="SI" style="text;html=1;align=center;verticalAlign=middle;resizable=0;points=[];autosize=1;strokeColor=none;fillColor=none;" vertex="1" parent="1">
          <mxGeometry x="400" y="710" width="30" height="30" as="geometry" />
        </mxCell>
        <mxCell id="jAzLcmatW34AS9ptDqRP-830" value="SI" style="text;html=1;align=center;verticalAlign=middle;resizable=0;points=[];autosize=1;strokeColor=none;fillColor=none;" vertex="1" parent="1">
          <mxGeometry x="410" y="830" width="30" height="30" as="geometry" />
        </mxCell>
        <mxCell id="jAzLcmatW34AS9ptDqRP-831" value="SI" style="text;html=1;align=center;verticalAlign=middle;resizable=0;points=[];autosize=1;strokeColor=none;fillColor=none;" vertex="1" parent="1">
          <mxGeometry x="405" y="950" width="30" height="30" as="geometry" />
        </mxCell>
        <mxCell id="jAzLcmatW34AS9ptDqRP-832" value="SI" style="text;html=1;align=center;verticalAlign=middle;resizable=0;points=[];autosize=1;strokeColor=none;fillColor=none;" vertex="1" parent="1">
          <mxGeometry x="405" y="1079" width="30" height="30" as="geometry" />
        </mxCell>
        <mxCell id="jAzLcmatW34AS9ptDqRP-833" value="NO" style="text;html=1;align=center;verticalAlign=middle;resizable=0;points=[];autosize=1;strokeColor=none;fillColor=none;" vertex="1" parent="1">
          <mxGeometry x="370" y="428" width="40" height="30" as="geometry" />
        </mxCell>
        <mxCell id="jAzLcmatW34AS9ptDqRP-834" value="NO" style="text;html=1;align=center;verticalAlign=middle;resizable=0;points=[];autosize=1;strokeColor=none;fillColor=none;" vertex="1" parent="1">
          <mxGeometry x="371" y="545" width="40" height="30" as="geometry" />
        </mxCell>
        <mxCell id="jAzLcmatW34AS9ptDqRP-835" value="NO" style="text;html=1;align=center;verticalAlign=middle;resizable=0;points=[];autosize=1;strokeColor=none;fillColor=none;" vertex="1" parent="1">
          <mxGeometry x="371" y="670" width="40" height="30" as="geometry" />
        </mxCell>
        <mxCell id="jAzLcmatW34AS9ptDqRP-836" value="NO" style="text;html=1;align=center;verticalAlign=middle;resizable=0;points=[];autosize=1;strokeColor=none;fillColor=none;" vertex="1" parent="1">
          <mxGeometry x="371" y="790" width="40" height="30" as="geometry" />
        </mxCell>
        <mxCell id="jAzLcmatW34AS9ptDqRP-837" value="NO" style="text;html=1;align=center;verticalAlign=middle;resizable=0;points=[];autosize=1;strokeColor=none;fillColor=none;" vertex="1" parent="1">
          <mxGeometry x="371" y="910" width="40" height="30" as="geometry" />
        </mxCell>
        <mxCell id="jAzLcmatW34AS9ptDqRP-838" value="NO" style="text;html=1;align=center;verticalAlign=middle;resizable=0;points=[];autosize=1;strokeColor=none;fillColor=none;" vertex="1" parent="1">
          <mxGeometry x="371" y="1030" width="40" height="30" as="geometry" />
        </mxCell>
        <mxCell id="jAzLcmatW34AS9ptDqRP-839" value="NO" style="text;html=1;align=center;verticalAlign=middle;resizable=0;points=[];autosize=1;strokeColor=none;fillColor=none;" vertex="1" parent="1">
          <mxGeometry x="380" y="1150" width="40" height="30" as="geometry" />
        </mxCell>
        <mxCell id="jAzLcmatW34AS9ptDqRP-840" style="edgeStyle=orthogonalEdgeStyle;rounded=0;orthogonalLoop=1;jettySize=auto;html=1;" edge="1" parent="1">
          <mxGeometry relative="1" as="geometry">
            <mxPoint x="370" y="1270" as="targetPoint" />
            <mxPoint x="690" y="400" as="sourcePoint" />
            <Array as="points">
              <mxPoint x="691" y="470" />
              <mxPoint x="691" y="1230" />
            </Array>
          </mxGeometry>
        </mxCell>
        <mxCell id="jAzLcmatW34AS9ptDqRP-841" value="espacio1 =&quot; &quot;" style="whiteSpace=wrap;html=1;" vertex="1" parent="1">
          <mxGeometry x="440" y="380" width="120" height="40" as="geometry" />
        </mxCell>
        <mxCell id="jAzLcmatW34AS9ptDqRP-842" value="espacio1= &quot;&amp;nbsp;&amp;nbsp;&quot;" style="whiteSpace=wrap;html=1;" vertex="1" parent="1">
          <mxGeometry x="440" y="490" width="120" height="40" as="geometry" />
        </mxCell>
        <mxCell id="jAzLcmatW34AS9ptDqRP-843" value="espacio1=&quot;&amp;nbsp; &amp;nbsp; &amp;nbsp;&quot;" style="whiteSpace=wrap;html=1;" vertex="1" parent="1">
          <mxGeometry x="440" y="610" width="120" height="40" as="geometry" />
        </mxCell>
        <mxCell id="jAzLcmatW34AS9ptDqRP-844" value="espacio1=&quot;&amp;nbsp; &amp;nbsp; &amp;nbsp; &amp;nbsp;&amp;nbsp;&quot;" style="whiteSpace=wrap;html=1;" vertex="1" parent="1">
          <mxGeometry x="435" y="730" width="120" height="40" as="geometry" />
        </mxCell>
        <mxCell id="jAzLcmatW34AS9ptDqRP-845" value="espacio1=&quot;&amp;nbsp; &amp;nbsp; &amp;nbsp; &amp;nbsp; &amp;nbsp; &amp;nbsp;&quot;" style="whiteSpace=wrap;html=1;" vertex="1" parent="1">
          <mxGeometry x="440" y="850" width="120" height="40" as="geometry" />
        </mxCell>
        <mxCell id="jAzLcmatW34AS9ptDqRP-846" value="espacio1=&quot;&amp;nbsp; &amp;nbsp; &amp;nbsp; &amp;nbsp; &amp;nbsp; &amp;nbsp; &amp;nbsp;&amp;nbsp;&quot;" style="whiteSpace=wrap;html=1;" vertex="1" parent="1">
          <mxGeometry x="440" y="970" width="130" height="40" as="geometry" />
        </mxCell>
        <mxCell id="jAzLcmatW34AS9ptDqRP-847" value="espacio1=&quot;&amp;nbsp; &amp;nbsp; &amp;nbsp; &amp;nbsp; &amp;nbsp; &amp;nbsp; &amp;nbsp; &amp;nbsp; &amp;nbsp;&quot;" style="whiteSpace=wrap;html=1;" vertex="1" parent="1">
          <mxGeometry x="440" y="1098.5" width="150" height="41" as="geometry" />
        </mxCell>
        <mxCell id="jAzLcmatW34AS9ptDqRP-848" value="" style="endArrow=none;html=1;rounded=0;" edge="1" parent="1">
          <mxGeometry width="50" height="50" relative="1" as="geometry">
            <mxPoint x="370" y="1230" as="sourcePoint" />
            <mxPoint x="371" y="1159" as="targetPoint" />
          </mxGeometry>
        </mxCell>
        <mxCell id="jAzLcmatW34AS9ptDqRP-849" value="" style="endArrow=none;html=1;rounded=0;exitX=1;exitY=0.5;exitDx=0;exitDy=0;" edge="1" parent="1" source="jAzLcmatW34AS9ptDqRP-841">
          <mxGeometry width="50" height="50" relative="1" as="geometry">
            <mxPoint x="560" y="440" as="sourcePoint" />
            <mxPoint x="690" y="400" as="targetPoint" />
          </mxGeometry>
        </mxCell>
        <mxCell id="jAzLcmatW34AS9ptDqRP-850" value="" style="endArrow=none;html=1;rounded=0;exitX=1;exitY=0.5;exitDx=0;exitDy=0;" edge="1" parent="1" source="jAzLcmatW34AS9ptDqRP-842">
          <mxGeometry width="50" height="50" relative="1" as="geometry">
            <mxPoint x="650" y="600" as="sourcePoint" />
            <mxPoint x="690" y="510" as="targetPoint" />
          </mxGeometry>
        </mxCell>
        <mxCell id="jAzLcmatW34AS9ptDqRP-851" value="" style="endArrow=none;html=1;rounded=0;" edge="1" parent="1">
          <mxGeometry width="50" height="50" relative="1" as="geometry">
            <mxPoint x="560" y="630" as="sourcePoint" />
            <mxPoint x="690" y="630" as="targetPoint" />
          </mxGeometry>
        </mxCell>
        <mxCell id="jAzLcmatW34AS9ptDqRP-852" value="" style="endArrow=none;html=1;rounded=0;exitX=1;exitY=0.5;exitDx=0;exitDy=0;" edge="1" parent="1" source="jAzLcmatW34AS9ptDqRP-844">
          <mxGeometry width="50" height="50" relative="1" as="geometry">
            <mxPoint x="560" y="750" as="sourcePoint" />
            <mxPoint x="690" y="750" as="targetPoint" />
          </mxGeometry>
        </mxCell>
        <mxCell id="jAzLcmatW34AS9ptDqRP-853" value="" style="endArrow=none;html=1;rounded=0;" edge="1" parent="1">
          <mxGeometry width="50" height="50" relative="1" as="geometry">
            <mxPoint x="560" y="870" as="sourcePoint" />
            <mxPoint x="690" y="870" as="targetPoint" />
          </mxGeometry>
        </mxCell>
        <mxCell id="jAzLcmatW34AS9ptDqRP-854" value="" style="endArrow=none;html=1;rounded=0;" edge="1" parent="1">
          <mxGeometry width="50" height="50" relative="1" as="geometry">
            <mxPoint x="570" y="990" as="sourcePoint" />
            <mxPoint x="690" y="990" as="targetPoint" />
          </mxGeometry>
        </mxCell>
        <mxCell id="jAzLcmatW34AS9ptDqRP-855" value="" style="endArrow=none;html=1;rounded=0;exitX=1;exitY=0.5;exitDx=0;exitDy=0;" edge="1" parent="1" source="jAzLcmatW34AS9ptDqRP-847">
          <mxGeometry width="50" height="50" relative="1" as="geometry">
            <mxPoint x="650" y="1170" as="sourcePoint" />
            <mxPoint x="690" y="1120" as="targetPoint" />
          </mxGeometry>
        </mxCell>
        <mxCell id="jAzLcmatW34AS9ptDqRP-856" value="" style="edgeStyle=orthogonalEdgeStyle;rounded=0;orthogonalLoop=1;jettySize=auto;html=1;" edge="1" parent="1" source="jAzLcmatW34AS9ptDqRP-858" target="jAzLcmatW34AS9ptDqRP-861">
          <mxGeometry relative="1" as="geometry" />
        </mxCell>
        <mxCell id="jAzLcmatW34AS9ptDqRP-857" value="" style="edgeStyle=orthogonalEdgeStyle;rounded=0;orthogonalLoop=1;jettySize=auto;html=1;" edge="1" parent="1" source="jAzLcmatW34AS9ptDqRP-858" target="jAzLcmatW34AS9ptDqRP-866">
          <mxGeometry relative="1" as="geometry" />
        </mxCell>
        <mxCell id="jAzLcmatW34AS9ptDqRP-858" value="i&amp;lt;=k" style="rhombus;whiteSpace=wrap;html=1;fillColor=#fff2cc;strokeColor=#d6b656;" vertex="1" parent="1">
          <mxGeometry x="302.5" y="1270" width="135" height="80" as="geometry" />
        </mxCell>
        <mxCell id="jAzLcmatW34AS9ptDqRP-859" value="NO" style="text;html=1;align=center;verticalAlign=middle;resizable=0;points=[];autosize=1;strokeColor=none;fillColor=none;" vertex="1" parent="1">
          <mxGeometry x="410" y="1268" width="40" height="30" as="geometry" />
        </mxCell>
        <mxCell id="jAzLcmatW34AS9ptDqRP-860" value="" style="edgeStyle=orthogonalEdgeStyle;rounded=0;orthogonalLoop=1;jettySize=auto;html=1;" edge="1" parent="1" source="jAzLcmatW34AS9ptDqRP-861" target="jAzLcmatW34AS9ptDqRP-862">
          <mxGeometry relative="1" as="geometry" />
        </mxCell>
        <mxCell id="jAzLcmatW34AS9ptDqRP-861" value="espacio1, &quot; &quot;" style="shape=parallelogram;perimeter=parallelogramPerimeter;whiteSpace=wrap;html=1;fixedSize=1;" vertex="1" parent="1">
          <mxGeometry x="464" y="1280" width="120" height="60" as="geometry" />
        </mxCell>
        <mxCell id="jAzLcmatW34AS9ptDqRP-862" value="FIN" style="ellipse;whiteSpace=wrap;html=1;" vertex="1" parent="1">
          <mxGeometry x="610" y="1270" width="80" height="80" as="geometry" />
        </mxCell>
        <mxCell id="jAzLcmatW34AS9ptDqRP-863" value="SI" style="text;html=1;align=center;verticalAlign=middle;resizable=0;points=[];autosize=1;strokeColor=none;fillColor=none;" vertex="1" parent="1">
          <mxGeometry x="390" y="1350" width="30" height="30" as="geometry" />
        </mxCell>
        <mxCell id="jAzLcmatW34AS9ptDqRP-864" value="" style="edgeStyle=orthogonalEdgeStyle;rounded=0;orthogonalLoop=1;jettySize=auto;html=1;exitX=0;exitY=0.5;exitDx=0;exitDy=0;" edge="1" parent="1" source="jAzLcmatW34AS9ptDqRP-866" target="jAzLcmatW34AS9ptDqRP-869">
          <mxGeometry relative="1" as="geometry">
            <mxPoint x="302.5" y="1457.5" as="sourcePoint" />
          </mxGeometry>
        </mxCell>
        <mxCell id="jAzLcmatW34AS9ptDqRP-865" style="edgeStyle=orthogonalEdgeStyle;rounded=0;orthogonalLoop=1;jettySize=auto;html=1;entryX=0.5;entryY=0;entryDx=0;entryDy=0;" edge="1" parent="1" source="jAzLcmatW34AS9ptDqRP-866" target="jAzLcmatW34AS9ptDqRP-878">
          <mxGeometry relative="1" as="geometry" />
        </mxCell>
        <mxCell id="jAzLcmatW34AS9ptDqRP-866" value="r&amp;lt;=14" style="rhombus;whiteSpace=wrap;html=1;fillColor=#fff2cc;strokeColor=#d6b656;" vertex="1" parent="1">
          <mxGeometry x="302.5" y="1400" width="135" height="80" as="geometry" />
        </mxCell>
        <mxCell id="jAzLcmatW34AS9ptDqRP-867" value="SI" style="text;html=1;align=center;verticalAlign=middle;resizable=0;points=[];autosize=1;strokeColor=none;fillColor=none;" vertex="1" parent="1">
          <mxGeometry x="280" y="1442.5" width="30" height="30" as="geometry" />
        </mxCell>
        <mxCell id="jAzLcmatW34AS9ptDqRP-868" value="" style="edgeStyle=orthogonalEdgeStyle;rounded=0;orthogonalLoop=1;jettySize=auto;html=1;" edge="1" parent="1" source="jAzLcmatW34AS9ptDqRP-869" target="jAzLcmatW34AS9ptDqRP-871">
          <mxGeometry relative="1" as="geometry" />
        </mxCell>
        <mxCell id="jAzLcmatW34AS9ptDqRP-869" value="espacio1.size()== s+(s*r) + r" style="rhombus;whiteSpace=wrap;html=1;fillColor=#fff2cc;strokeColor=#d6b656;" vertex="1" parent="1">
          <mxGeometry x="80" y="1392.5" width="180" height="95" as="geometry" />
        </mxCell>
        <mxCell id="jAzLcmatW34AS9ptDqRP-870" style="edgeStyle=orthogonalEdgeStyle;rounded=0;orthogonalLoop=1;jettySize=auto;html=1;entryX=0;entryY=0.5;entryDx=0;entryDy=0;" edge="1" parent="1" source="jAzLcmatW34AS9ptDqRP-871" target="jAzLcmatW34AS9ptDqRP-878">
          <mxGeometry relative="1" as="geometry">
            <mxPoint x="-60" y="1580" as="targetPoint" />
            <Array as="points">
              <mxPoint x="-60" y="1570" />
            </Array>
          </mxGeometry>
        </mxCell>
        <mxCell id="jAzLcmatW34AS9ptDqRP-871" value="espacio1= espacio1 + &#39;\n&#39;" style="whiteSpace=wrap;html=1;" vertex="1" parent="1">
          <mxGeometry x="-130" y="1410" width="140" height="60" as="geometry" />
        </mxCell>
        <mxCell id="jAzLcmatW34AS9ptDqRP-872" value="SI" style="text;html=1;align=center;verticalAlign=middle;resizable=0;points=[];autosize=1;strokeColor=none;fillColor=none;" vertex="1" parent="1">
          <mxGeometry x="30" y="1410" width="30" height="30" as="geometry" />
        </mxCell>
        <mxCell id="jAzLcmatW34AS9ptDqRP-873" value="NO" style="text;html=1;align=center;verticalAlign=middle;resizable=0;points=[];autosize=1;strokeColor=none;fillColor=none;" vertex="1" parent="1">
          <mxGeometry x="380" y="1480" width="40" height="30" as="geometry" />
        </mxCell>
        <mxCell id="jAzLcmatW34AS9ptDqRP-874" value="" style="edgeStyle=orthogonalEdgeStyle;rounded=0;orthogonalLoop=1;jettySize=auto;html=1;" edge="1" parent="1" source="jAzLcmatW34AS9ptDqRP-876" target="jAzLcmatW34AS9ptDqRP-882">
          <mxGeometry relative="1" as="geometry" />
        </mxCell>
        <mxCell id="jAzLcmatW34AS9ptDqRP-875" value="" style="edgeStyle=orthogonalEdgeStyle;rounded=0;orthogonalLoop=1;jettySize=auto;html=1;" edge="1" parent="1" source="jAzLcmatW34AS9ptDqRP-876" target="jAzLcmatW34AS9ptDqRP-885">
          <mxGeometry relative="1" as="geometry" />
        </mxCell>
        <mxCell id="jAzLcmatW34AS9ptDqRP-876" value="n==1 and espacio1.size()==1" style="rhombus;whiteSpace=wrap;html=1;fillColor=#fff2cc;strokeColor=#d6b656;" vertex="1" parent="1">
          <mxGeometry x="296.25" y="1658" width="147.5" height="100" as="geometry" />
        </mxCell>
        <mxCell id="jAzLcmatW34AS9ptDqRP-877" style="edgeStyle=orthogonalEdgeStyle;rounded=0;orthogonalLoop=1;jettySize=auto;html=1;entryX=0.5;entryY=0;entryDx=0;entryDy=0;" edge="1" parent="1" source="jAzLcmatW34AS9ptDqRP-878" target="jAzLcmatW34AS9ptDqRP-876">
          <mxGeometry relative="1" as="geometry" />
        </mxCell>
        <mxCell id="jAzLcmatW34AS9ptDqRP-878" value="++r" style="whiteSpace=wrap;html=1;" vertex="1" parent="1">
          <mxGeometry x="330" y="1550" width="80" height="40" as="geometry" />
        </mxCell>
        <mxCell id="jAzLcmatW34AS9ptDqRP-879" value="NO" style="text;html=1;align=center;verticalAlign=middle;resizable=0;points=[];autosize=1;strokeColor=none;fillColor=none;" vertex="1" parent="1">
          <mxGeometry x="180" y="1487.5" width="40" height="30" as="geometry" />
        </mxCell>
        <mxCell id="jAzLcmatW34AS9ptDqRP-880" value="" style="endArrow=none;html=1;rounded=0;entryX=0.5;entryY=1;entryDx=0;entryDy=0;" edge="1" parent="1" target="jAzLcmatW34AS9ptDqRP-869">
          <mxGeometry width="50" height="50" relative="1" as="geometry">
            <mxPoint x="170" y="1570" as="sourcePoint" />
            <mxPoint x="170" y="1490" as="targetPoint" />
          </mxGeometry>
        </mxCell>
        <mxCell id="jAzLcmatW34AS9ptDqRP-881" style="edgeStyle=orthogonalEdgeStyle;rounded=0;orthogonalLoop=1;jettySize=auto;html=1;entryX=1;entryY=0.5;entryDx=0;entryDy=0;" edge="1" parent="1" source="jAzLcmatW34AS9ptDqRP-882" target="jAzLcmatW34AS9ptDqRP-907">
          <mxGeometry relative="1" as="geometry">
            <mxPoint x="440" y="2250" as="targetPoint" />
            <Array as="points">
              <mxPoint x="820" y="1708" />
              <mxPoint x="820" y="2250" />
            </Array>
          </mxGeometry>
        </mxCell>
        <mxCell id="jAzLcmatW34AS9ptDqRP-882" value="espacio1=espacio1 + i" style="whiteSpace=wrap;html=1;" vertex="1" parent="1">
          <mxGeometry x="470" y="1678" width="140" height="60" as="geometry" />
        </mxCell>
        <mxCell id="jAzLcmatW34AS9ptDqRP-883" value="" style="edgeStyle=orthogonalEdgeStyle;rounded=0;orthogonalLoop=1;jettySize=auto;html=1;" edge="1" parent="1" source="jAzLcmatW34AS9ptDqRP-885" target="jAzLcmatW34AS9ptDqRP-888">
          <mxGeometry relative="1" as="geometry" />
        </mxCell>
        <mxCell id="jAzLcmatW34AS9ptDqRP-884" value="" style="edgeStyle=orthogonalEdgeStyle;rounded=0;orthogonalLoop=1;jettySize=auto;html=1;" edge="1" parent="1" source="jAzLcmatW34AS9ptDqRP-885" target="jAzLcmatW34AS9ptDqRP-891">
          <mxGeometry relative="1" as="geometry" />
        </mxCell>
        <UserObject label="i.size()==1 and&amp;nbsp;&lt;div&gt;espacio1 [espacio1.size()-1] !=&#39;\n&#39;&lt;/div&gt;" link="n==1 &amp;&amp; espacio1.size()==1" id="jAzLcmatW34AS9ptDqRP-885">
          <mxCell style="rhombus;whiteSpace=wrap;html=1;fillColor=#fff2cc;strokeColor=#d6b656;" vertex="1" parent="1">
            <mxGeometry x="247.5" y="1790" width="245" height="90" as="geometry" />
          </mxCell>
        </UserObject>
        <mxCell id="jAzLcmatW34AS9ptDqRP-886" value="SI" style="text;html=1;align=center;verticalAlign=middle;resizable=0;points=[];autosize=1;strokeColor=none;fillColor=none;" vertex="1" parent="1">
          <mxGeometry x="425" y="1668" width="30" height="30" as="geometry" />
        </mxCell>
        <mxCell id="jAzLcmatW34AS9ptDqRP-887" value="NO" style="text;html=1;align=center;verticalAlign=middle;resizable=0;points=[];autosize=1;strokeColor=none;fillColor=none;" vertex="1" parent="1">
          <mxGeometry x="380" y="1748" width="40" height="30" as="geometry" />
        </mxCell>
        <mxCell id="jAzLcmatW34AS9ptDqRP-888" value="_i = &quot;&amp;nbsp; &quot; + i&lt;div&gt;espacio1 = espacio1 + _i&lt;/div&gt;" style="whiteSpace=wrap;html=1;" vertex="1" parent="1">
          <mxGeometry x="530" y="1805" width="150" height="60" as="geometry" />
        </mxCell>
        <mxCell id="jAzLcmatW34AS9ptDqRP-889" value="" style="edgeStyle=orthogonalEdgeStyle;rounded=0;orthogonalLoop=1;jettySize=auto;html=1;" edge="1" parent="1" source="jAzLcmatW34AS9ptDqRP-891" target="jAzLcmatW34AS9ptDqRP-895">
          <mxGeometry relative="1" as="geometry" />
        </mxCell>
        <mxCell id="jAzLcmatW34AS9ptDqRP-890" value="" style="edgeStyle=orthogonalEdgeStyle;rounded=0;orthogonalLoop=1;jettySize=auto;html=1;" edge="1" parent="1" source="jAzLcmatW34AS9ptDqRP-891" target="jAzLcmatW34AS9ptDqRP-898">
          <mxGeometry relative="1" as="geometry" />
        </mxCell>
        <UserObject label="i.size()==1 and&amp;nbsp;&lt;div&gt;espacio1 [espacio1.size()-1] !=&#39;\n&#39;&lt;/div&gt;" link="n==1 &amp;&amp; espacio1.size()==1" id="jAzLcmatW34AS9ptDqRP-891">
          <mxCell style="rhombus;whiteSpace=wrap;html=1;fillColor=#fff2cc;strokeColor=#d6b656;" vertex="1" parent="1">
            <mxGeometry x="243.75" y="1930" width="252.5" height="100" as="geometry" />
          </mxCell>
        </UserObject>
        <mxCell id="jAzLcmatW34AS9ptDqRP-892" value="SI" style="text;html=1;align=center;verticalAlign=middle;resizable=0;points=[];autosize=1;strokeColor=none;fillColor=none;" vertex="1" parent="1">
          <mxGeometry x="485" y="1798" width="30" height="30" as="geometry" />
        </mxCell>
        <mxCell id="jAzLcmatW34AS9ptDqRP-893" value="NO" style="text;html=1;align=center;verticalAlign=middle;resizable=0;points=[];autosize=1;strokeColor=none;fillColor=none;" vertex="1" parent="1">
          <mxGeometry x="370" y="1878" width="40" height="30" as="geometry" />
        </mxCell>
        <mxCell id="jAzLcmatW34AS9ptDqRP-894" value="SI" style="text;html=1;align=center;verticalAlign=middle;resizable=0;points=[];autosize=1;strokeColor=none;fillColor=none;" vertex="1" parent="1">
          <mxGeometry x="485" y="1948" width="30" height="30" as="geometry" />
        </mxCell>
        <mxCell id="jAzLcmatW34AS9ptDqRP-895" value="&lt;div&gt;_i = &quot; &quot; + i&lt;/div&gt;&lt;div&gt;&lt;span style=&quot;background-color: initial;&quot;&gt;espacio1 = espacio1 + _i&lt;/span&gt;&lt;/div&gt;" style="whiteSpace=wrap;html=1;" vertex="1" parent="1">
          <mxGeometry x="530" y="1950" width="150" height="60" as="geometry" />
        </mxCell>
        <mxCell id="jAzLcmatW34AS9ptDqRP-896" value="" style="edgeStyle=orthogonalEdgeStyle;rounded=0;orthogonalLoop=1;jettySize=auto;html=1;" edge="1" parent="1" source="jAzLcmatW34AS9ptDqRP-898" target="jAzLcmatW34AS9ptDqRP-900">
          <mxGeometry relative="1" as="geometry" />
        </mxCell>
        <mxCell id="jAzLcmatW34AS9ptDqRP-897" value="" style="edgeStyle=orthogonalEdgeStyle;rounded=0;orthogonalLoop=1;jettySize=auto;html=1;" edge="1" parent="1" source="jAzLcmatW34AS9ptDqRP-898">
          <mxGeometry relative="1" as="geometry">
            <mxPoint x="370" y="2220" as="targetPoint" />
          </mxGeometry>
        </mxCell>
        <UserObject label="i.size()==2 and&amp;nbsp;&lt;div&gt;espacio1 [espacio1.size()-1]==&#39;\n&#39;&lt;/div&gt;" link="n==1 &amp;&amp; espacio1.size()==1" id="jAzLcmatW34AS9ptDqRP-898">
          <mxCell style="rhombus;whiteSpace=wrap;html=1;fillColor=#fff2cc;strokeColor=#d6b656;" vertex="1" parent="1">
            <mxGeometry x="242.38" y="2070" width="255.25" height="100" as="geometry" />
          </mxCell>
        </UserObject>
        <mxCell id="jAzLcmatW34AS9ptDqRP-899" value="NO" style="text;html=1;align=center;verticalAlign=middle;resizable=0;points=[];autosize=1;strokeColor=none;fillColor=none;" vertex="1" parent="1">
          <mxGeometry x="380" y="2030" width="40" height="30" as="geometry" />
        </mxCell>
        <mxCell id="jAzLcmatW34AS9ptDqRP-900" value="espacio1 = espacio1 + i" style="whiteSpace=wrap;html=1;" vertex="1" parent="1">
          <mxGeometry x="530" y="2090" width="200" height="60" as="geometry" />
        </mxCell>
        <mxCell id="jAzLcmatW34AS9ptDqRP-901" value="SI" style="text;html=1;align=center;verticalAlign=middle;resizable=0;points=[];autosize=1;strokeColor=none;fillColor=none;" vertex="1" parent="1">
          <mxGeometry x="475" y="2088" width="30" height="30" as="geometry" />
        </mxCell>
        <mxCell id="jAzLcmatW34AS9ptDqRP-902" value="NO" style="text;html=1;align=center;verticalAlign=middle;resizable=0;points=[];autosize=1;strokeColor=none;fillColor=none;" vertex="1" parent="1">
          <mxGeometry x="374" y="2170" width="40" height="30" as="geometry" />
        </mxCell>
        <mxCell id="jAzLcmatW34AS9ptDqRP-903" value="" style="endArrow=none;html=1;rounded=0;" edge="1" parent="1">
          <mxGeometry width="50" height="50" relative="1" as="geometry">
            <mxPoint x="680" y="1840" as="sourcePoint" />
            <mxPoint x="820" y="1840" as="targetPoint" />
          </mxGeometry>
        </mxCell>
        <mxCell id="jAzLcmatW34AS9ptDqRP-904" value="" style="endArrow=none;html=1;rounded=0;" edge="1" parent="1">
          <mxGeometry width="50" height="50" relative="1" as="geometry">
            <mxPoint x="680" y="1980" as="sourcePoint" />
            <mxPoint x="820" y="1980" as="targetPoint" />
          </mxGeometry>
        </mxCell>
        <mxCell id="jAzLcmatW34AS9ptDqRP-905" value="" style="endArrow=none;html=1;rounded=0;" edge="1" parent="1">
          <mxGeometry width="50" height="50" relative="1" as="geometry">
            <mxPoint x="730" y="2120" as="sourcePoint" />
            <mxPoint x="820" y="2120" as="targetPoint" />
          </mxGeometry>
        </mxCell>
        <mxCell id="jAzLcmatW34AS9ptDqRP-906" style="edgeStyle=orthogonalEdgeStyle;rounded=0;orthogonalLoop=1;jettySize=auto;html=1;exitX=0;exitY=0.5;exitDx=0;exitDy=0;entryX=0;entryY=0.5;entryDx=0;entryDy=0;" edge="1" parent="1" source="jAzLcmatW34AS9ptDqRP-907" target="jAzLcmatW34AS9ptDqRP-858">
          <mxGeometry relative="1" as="geometry">
            <mxPoint x="-240" y="1300" as="targetPoint" />
            <Array as="points">
              <mxPoint x="-180" y="2250" />
              <mxPoint x="-180" y="1310" />
            </Array>
          </mxGeometry>
        </mxCell>
        <mxCell id="jAzLcmatW34AS9ptDqRP-907" value="++i" style="whiteSpace=wrap;html=1;" vertex="1" parent="1">
          <mxGeometry x="310" y="2220" width="120" height="60" as="geometry" />
        </mxCell>
      </root>
    </mxGraphModel>
  </diagram>
</mxfile>
